<svg width="48" height="48" viewBox="0 0 48 48" fill="none" xmlns="http://www.w3.org/2000/svg">
<path d="M23.9999 0.315735C10.9263 0.315735 0.315735 10.9263 0.315735 23.9999C0.315735 37.0736 10.9263 47.6842 23.9999 47.6842C37.0736 47.6842 47.6842 37.0736 47.6842 23.9999C47.6842 10.9263 37.0736 0.315735 23.9999 0.315735ZM5.05258 23.9999C5.05258 13.5315 13.5315 5.05258 23.9999 5.05258C28.3815 5.05258 32.4078 6.54468 35.6052 9.05521L9.05521 35.6052C6.4538 32.297 5.04365 28.2084 5.05258 23.9999ZM23.9999 42.9473C19.6184 42.9473 15.592 41.4552 12.3947 38.9447L38.9447 12.3947C41.5461 15.7029 42.9562 19.7915 42.9473 23.9999C42.9473 34.4684 34.4684 42.9473 23.9999 42.9473Z" fill="#EFAAE8"/>
</svg>
