<svg width="36" height="42" viewBox="0 0 36 42" fill="none" xmlns="http://www.w3.org/2000/svg">
<path d="M19.186 40.6235L19.164 40.6275L19.022 40.6961L18.982 40.7039L18.954 40.6961L18.812 40.6275C18.7906 40.6209 18.7746 40.6242 18.764 40.6373L18.756 40.6569L18.722 41.4961L18.732 41.5353L18.752 41.5608L18.96 41.7059L18.99 41.7137L19.014 41.7059L19.222 41.5608L19.246 41.5294L19.254 41.4961L19.22 40.6588C19.2146 40.6379 19.2033 40.6261 19.186 40.6235ZM19.716 40.402L19.69 40.4059L19.32 40.5882L19.3 40.6078L19.294 40.6294L19.33 41.4726L19.34 41.4961L19.356 41.5098L19.758 41.6922C19.7833 41.6987 19.8026 41.6935 19.816 41.6765L19.824 41.649L19.756 40.4451C19.7493 40.4216 19.736 40.4072 19.716 40.402ZM18.286 40.4059C18.2772 40.4006 18.2666 40.399 18.2566 40.4011C18.2465 40.4033 18.2377 40.4092 18.232 40.4176L18.22 40.4451L18.152 41.649C18.1533 41.6726 18.1646 41.6882 18.186 41.6961L18.216 41.6922L18.618 41.5098L18.638 41.4941L18.646 41.4726L18.68 40.6294L18.674 40.6059L18.654 40.5863L18.286 40.4059Z" fill="white"/>
<path d="M18 0.901978C13.2261 0.901978 8.64773 2.76122 5.27208 6.07068C1.89642 9.38015 0 13.8687 0 18.549V30.3137C0 31.8738 0.632141 33.37 1.75736 34.4732C2.88258 35.5764 4.4087 36.1961 6 36.1961H8.764C9.50699 36.1961 10.2353 35.9932 10.8673 35.6101C11.4992 35.2271 12.0099 34.6791 12.342 34.0275L12.692 33.3412C12.0451 32.8984 11.44 32.3997 10.884 31.851C8.686 29.6824 7 26.4981 7 22.4706C7 21.0294 7.248 19.5961 7.698 18.2412C7.898 17.6392 8.452 17.5686 9 17.5686C12.38 17.5686 15.37 15.9235 17.182 13.402C17.2743 13.2733 17.3968 13.1683 17.5391 13.0958C17.6815 13.0234 17.8396 12.9855 18 12.9855C18.1604 12.9855 18.3185 13.0234 18.4609 13.0958C18.6032 13.1683 18.7257 13.2733 18.818 13.402C19.7407 14.6892 20.9659 15.7397 22.39 16.4649C23.8141 17.1902 25.3953 17.5687 27 17.5686C27.548 17.5686 28.104 17.6392 28.302 18.2412C28.7591 19.6065 28.9946 21.0337 29 22.4706C29 26.5 27.314 29.6824 25.116 31.851C24.546 32.4137 23.936 32.9118 23.308 33.3412L23.658 34.0275C23.9901 34.6791 24.5008 35.2271 25.1327 35.6101C25.7647 35.9932 26.493 36.1961 27.236 36.1961H30C31.5913 36.1961 33.1174 35.5764 34.2426 34.4732C35.3679 33.37 36 31.8738 36 30.3137V18.549C36 13.8687 34.1036 9.38015 30.7279 6.07068C27.3523 2.76122 22.7739 0.901978 18 0.901978Z" fill="white"/>
</svg>
