<svg width="48" height="48" viewBox="0 0 48 48" fill="none" xmlns="http://www.w3.org/2000/svg">
<path d="M24.4428 11C20.1772 11 15.8459 12.7972 12.6116 15.4916C9.58156 18.0134 7.56031 21.2947 7.31281 24.5009C7.54531 24.5572 7.77969 24.6134 8.01406 24.6697C13.8022 26.0009 19.5772 26.6291 25.3616 26.5541C25.1928 26.1603 25.1178 25.7197 25.1928 25.2603C25.3428 24.4259 25.9616 23.8166 26.6741 23.4884C27.3866 23.1509 28.2491 23.0478 29.1209 23.2072C29.1584 23.2166 29.1959 23.2259 29.2428 23.2353C29.2147 23.1322 29.2053 23.0197 29.1866 22.9166C29.0553 22.0072 29.1866 21.1447 29.5522 20.4228C29.9178 19.7103 30.5741 19.1009 31.4178 18.9884C32.2616 18.8666 33.0584 19.2697 33.6022 19.8509C34.1084 20.4134 34.4647 21.1353 34.6147 21.9697C34.6334 21.9416 34.6616 21.9134 34.6803 21.8853C35.2616 21.1728 35.9834 20.6853 36.7616 20.4603C37.5303 20.2353 38.4116 20.3009 39.0772 20.8447C39.7428 21.3791 39.9959 22.2322 39.9397 23.0291C39.8834 23.7134 39.6397 24.3978 39.2084 25.0259C39.4147 24.9791 39.6303 24.9416 39.8366 24.8947C39.9959 24.8666 40.1553 24.8291 40.3147 24.7916C40.4178 24.7728 40.5303 24.7447 40.6334 24.7259C40.9428 24.6509 41.2616 24.5759 41.5709 24.5009C41.3272 21.2947 39.3022 18.0134 36.2741 15.4916C33.0397 12.7972 28.7084 11 24.4428 11ZM31.7272 20.6478C31.7084 20.6478 31.6803 20.6572 31.6522 20.6572C31.4459 20.6853 31.2397 20.8259 31.0522 21.1822C30.8741 21.5478 30.7709 22.0822 30.8553 22.6822C30.9209 23.1603 31.0991 23.5822 31.3147 23.8822C31.7928 23.5916 32.3366 23.4228 32.9272 23.4134C32.9928 23.1134 33.0209 22.7478 32.9741 22.3822C32.8897 21.7916 32.6366 21.3041 32.3741 21.0041C32.1303 20.7416 31.9147 20.6478 31.7272 20.6478ZM37.6053 22.0166C37.4928 22.0166 37.3709 22.0353 37.2209 22.0728C36.8366 22.1947 36.3678 22.4853 35.9928 22.9541C35.6178 23.4134 35.4303 23.9291 35.3928 24.3322V24.4541C35.6084 24.6791 35.7959 24.9416 35.9459 25.2228C36.0772 25.2416 36.2366 25.2228 36.4334 25.1666C36.8084 25.0541 37.2866 24.7541 37.6522 24.2947C38.0366 23.8259 38.2147 23.3197 38.2522 22.9166C38.2803 22.5134 38.1772 22.2791 38.0178 22.1478C37.9147 22.0728 37.7834 22.0166 37.6053 22.0166ZM28.4178 24.8291C28.0147 24.8197 27.6491 24.8947 27.3866 25.0072C27.0303 25.1759 26.8897 25.3728 26.8616 25.5603C26.8241 25.7384 26.8897 25.9728 27.1616 26.2447C27.4334 26.5166 27.9022 26.7791 28.4647 26.8822C28.8772 26.9572 29.2803 26.9291 29.5991 26.8447C29.6178 26.3197 29.7491 25.8134 29.9647 25.3634C29.6834 25.1478 29.2897 24.9509 28.8303 24.8666C28.6897 24.8478 28.5491 24.8291 28.4178 24.8291ZM32.9928 25.1009C32.0741 25.1009 31.2866 25.8978 31.2866 26.9572C31.2866 28.0166 32.0741 28.8134 32.9928 28.8134C33.9116 28.8134 34.6991 28.0166 34.6991 26.9572C34.6991 25.8978 33.9116 25.1009 32.9928 25.1009ZM6.88906 26.1322C6.27219 27.3322 4.33719 30.9322 2 33.6884C17.4022 37.6728 31.4834 37.6728 46.8866 33.6884C44.5522 30.9322 42.6116 27.3322 41.9928 26.1322C41.5334 26.2447 41.0741 26.3478 40.6241 26.4509C41.0366 26.9478 41.2897 27.5759 41.2053 28.2603C41.1116 29.1041 40.5303 29.7791 39.8272 30.1541C39.1147 30.5384 38.2616 30.6978 37.3428 30.5947C37.0709 30.5666 36.8178 30.5197 36.5647 30.4447C36.6397 30.7072 36.7053 30.9791 36.7334 31.2697C36.8366 32.1884 36.6772 33.0416 36.2928 33.7541C35.9084 34.4572 35.2334 35.0384 34.3897 35.1322C33.5366 35.2259 32.7584 34.8041 32.2241 34.2041C31.7741 33.6791 31.4553 33.0228 31.3053 32.2728C30.6491 32.9103 29.8616 33.3041 29.0647 33.4353C28.2772 33.5572 27.4053 33.3791 26.8147 32.7697C26.2241 32.1509 26.0741 31.2791 26.2334 30.4916C26.3928 29.7228 26.8053 28.9728 27.4334 28.3447C27.3022 28.2978 27.1803 28.2509 27.0584 28.1947C20.3366 28.4291 13.6053 27.7447 6.88906 26.1322ZM37.3616 26.7791C36.9866 26.7884 36.6491 26.8728 36.3866 26.9853C36.3772 27.4634 36.2834 27.9228 36.1147 28.3447L36.1334 28.3634C36.4428 28.6166 36.9491 28.8603 37.5303 28.9259C38.1303 28.9916 38.6647 28.8697 39.0209 28.6822C39.3772 28.4853 39.5084 28.2697 39.5366 28.0728C39.5553 27.8666 39.4709 27.6322 39.1709 27.3603C38.8616 27.0978 38.3647 26.8634 37.7647 26.7978C37.6897 26.7884 37.6241 26.7884 37.5491 26.7791H37.3616ZM30.0959 28.7947C30.0584 28.7947 30.0116 28.7947 29.9741 28.8041C29.5803 28.8697 29.0834 29.1041 28.6522 29.5166C28.2209 29.9291 27.9678 30.4166 27.8834 30.8103C27.8084 31.2134 27.8928 31.4478 28.0334 31.5978C28.1741 31.7478 28.4084 31.8322 28.8116 31.7666C29.2053 31.7009 29.7022 31.4666 30.1334 31.0541C30.5647 30.6416 30.8178 30.1541 30.9022 29.7603V29.7416C30.5834 29.4791 30.3022 29.1603 30.0959 28.7947ZM34.5303 30.1166C34.0897 30.3509 33.5834 30.4916 33.0491 30.5009C32.9366 30.8291 32.8803 31.2509 32.9272 31.6916C32.9928 32.2916 33.2272 32.7884 33.4897 33.0978C33.7616 33.3978 33.9959 33.4822 34.2022 33.4634C34.4084 33.4353 34.6147 33.3041 34.8116 32.9478C34.9991 32.5916 35.1209 32.0572 35.0553 31.4572C34.9897 30.9041 34.7834 30.4259 34.5303 30.1166Z" fill="white"/>
</svg>
