<svg width="29" height="36" viewBox="0 0 29 36" fill="none" xmlns="http://www.w3.org/2000/svg">
<path d="M29 22.5C29 26.0804 27.4723 29.5142 24.753 32.0459C22.0338 34.5777 18.3456 36 14.5 36C10.6544 36 6.96623 34.5777 4.24695 32.0459C1.52767 29.5142 0 26.0804 0 22.5C0.00230341 19.8695 0.829975 17.297 2.3813 15.0985C3.93263 12.9 6.14003 11.1713 8.73222 10.125L9.29933 10.536L11.7933 12.339C9.35255 12.9008 7.18341 14.2058 5.63048 16.0468C4.07755 17.8878 3.22992 20.1591 3.22222 22.5C3.22222 28.29 8.28111 33 14.5 33C20.7189 33 25.7778 28.29 25.7778 22.5C25.7701 20.1591 24.9224 17.8878 23.3695 16.0468C21.8166 14.2058 19.6474 12.9008 17.2067 12.339L20.2678 10.125C22.86 11.1713 25.0674 12.9 26.6187 15.0985C28.17 17.297 28.9977 19.8695 29 22.5ZM14.5 10.5L22.5556 4.665L19.3333 0H9.66667L6.44444 4.665L11.2778 8.166L14.5 10.5Z" fill="white"/>
</svg>
